<svg width="25" height="25" viewBox="0 0 25 25" fill="none" xmlns="http://www.w3.org/2000/svg">
<path d="M12.0898 11.5537C9.03542 11.399 6.60645 8.87315 6.60645 5.78027C6.60668 2.58802 9.19447 0.000225067 12.3867 0C15.5792 5.72205e-06 18.1677 2.58789 18.168 5.78027L18.1602 6.07812C18.0053 9.13248 15.4795 11.5615 12.3867 11.5615L12.0898 11.5537ZM12.3867 10.5615C15.027 10.5615 17.168 8.42057 17.168 5.78027C17.1677 3.14017 15.0269 1.00001 12.3867 1C9.74675 1.00023 7.60668 3.14031 7.60645 5.78027C7.60645 8.42044 9.74661 10.5613 12.3867 10.5615ZM23.5361 24.7744C23.536 22.0026 22.503 19.337 20.6514 17.292L20.2705 16.8916C18.1798 14.8009 15.3435 13.626 12.3867 13.626C9.43014 13.6261 6.59453 14.801 4.50391 16.8916C2.41355 18.9821 1.23854 21.8171 1.23828 24.7734H0C0.000255585 21.4886 1.30527 18.3384 3.62793 16.0156C5.95086 13.6927 9.10161 12.3878 12.3867 12.3877C15.672 12.3877 18.8234 13.6926 21.1465 16.0156C23.4693 18.3385 24.7743 21.4894 24.7744 24.7744H23.5361Z" fill="#666666"/>
</svg>
