<svg width="24" height="24" viewBox="0 0 24 24" fill="none" xmlns="http://www.w3.org/2000/svg">
<mask id="path-1-inside-1_789_1012" fill="white">
<path d="M14.2539 21.5381C14.2539 21.8612 14.1892 22.1819 14.0635 22.4805C13.9378 22.7789 13.7527 23.0498 13.5205 23.2783C13.2882 23.5068 13.0125 23.6888 12.709 23.8125C12.4055 23.9362 12.0795 24 11.751 24C11.4226 24 11.0973 23.9361 10.7939 23.8125C10.4904 23.6888 10.2138 23.5069 9.98145 23.2783C9.74936 23.0499 9.56512 22.7788 9.43945 22.4805C9.31373 22.1819 9.24902 21.8613 9.24902 21.5381V20.9229H0.490234C-1.38598 20.9224 2.702 15.784 3.07129 8.61523H3.1582C3.42868 6.77998 4.28098 5.06673 5.6084 3.73926C6.68812 2.65954 8.02354 1.89489 9.47168 1.50098C9.59483 1.21477 9.77151 0.951147 9.99609 0.726562C10.4615 0.26123 11.0929 8.10026e-05 11.751 0C12.409 4.96822e-08 13.0405 0.261349 13.5059 0.726562C13.7303 0.950996 13.9062 1.215 14.0293 1.50098C15.4779 1.8948 16.8136 2.65927 17.8936 3.73926C19.2211 5.06677 20.0743 6.77989 20.3447 8.61523H20.4209C20.8849 16.9664 26.1395 20.9228 23.0117 20.9229H14.2539V21.5381ZM11.6562 2.00977C11.5634 2.02835 11.4774 2.07338 11.4102 2.14062C11.3684 2.18239 11.3335 2.23315 11.3086 2.29102L10.9277 3.17773L9.99707 3.43066C8.88072 3.73432 7.85248 4.32331 7.02246 5.15332C6.00136 6.17447 5.34505 7.49362 5.13672 8.90723L4.91992 10.376C4.52123 13.5751 3.52781 16.2843 2.80664 18.1709C2.70018 18.4494 2.60661 18.6996 2.52148 18.9229H21.3359C21.3119 18.8731 21.287 18.822 21.2617 18.7695C20.3676 16.9159 19.0214 14.0407 18.5557 10.1973L18.3662 8.90723C18.158 7.4942 17.5011 6.17497 16.4795 5.15332C15.6494 4.32328 14.6217 3.73432 13.5049 3.43066L12.5742 3.17773L12.1924 2.29199C12.1791 2.26116 12.1635 2.2332 12.1465 2.20801L12.0918 2.14062C12.0016 2.05066 11.8789 2 11.751 2L11.6562 2.00977Z"/>
</mask>
<path d="M14.0635 22.4805L15.9067 23.2567L15.9068 23.2564L14.0635 22.4805ZM13.5205 23.2783L14.923 24.7041L14.9233 24.7039L13.5205 23.2783ZM12.709 23.8125L13.4636 25.6647L13.4639 25.6646L12.709 23.8125ZM11.751 24L11.7507 26H11.7512L11.751 24ZM10.7939 23.8125L10.0393 25.6647L10.0395 25.6648L10.7939 23.8125ZM9.98145 23.2783L8.57853 24.7037L8.57892 24.7041L9.98145 23.2783ZM9.43945 22.4805L7.59617 23.2565L7.59628 23.2568L9.43945 22.4805ZM9.24902 21.5381H11.249H9.24902ZM9.24902 20.9229H11.249V18.9229H9.24902V20.9229ZM0.490234 20.9229L0.489797 22.9229H0.490234V20.9229ZM3.07129 8.61523V6.61523H1.17166L1.07394 8.51234L3.07129 8.61523ZM3.1582 8.61523V10.6152H4.88505L5.13683 8.90684L3.1582 8.61523ZM5.6084 3.73926L4.19419 2.32504L4.19416 2.32507L5.6084 3.73926ZM9.47168 1.50098L9.99663 3.43085L10.9275 3.17764L11.3088 2.29147L9.47168 1.50098ZM9.99609 0.726562L8.58193 -0.687697L8.58188 -0.687651L9.99609 0.726562ZM11.751 0V-2H11.7507L11.751 0ZM13.5059 0.726562L14.9201 -0.687651L14.9198 -0.687943L13.5059 0.726562ZM14.0293 1.50098L12.1923 2.29194L12.5738 3.17787L13.5046 3.43092L14.0293 1.50098ZM17.8936 3.73926L19.3078 2.32505L19.3078 2.32504L17.8936 3.73926ZM20.3447 8.61523L18.3661 8.90681L18.6179 10.6152H20.3447V8.61523ZM20.4209 8.61523L22.4178 8.50428L22.3129 6.61523H20.4209V8.61523ZM23.0117 20.9229V22.9229H23.0117L23.0117 20.9229ZM14.2539 20.9229V18.9229H12.2539V20.9229H14.2539ZM11.6562 2.00977L11.4512 0.0203098L11.3568 0.0300362L11.2638 0.0486474L11.6562 2.00977ZM11.4102 2.14062L9.99618 0.726174L9.99594 0.726412L11.4102 2.14062ZM11.3086 2.29102L9.47195 1.49935L9.47093 1.50171L11.3086 2.29102ZM10.9277 3.17773L11.4523 5.10773L12.3842 4.85444L12.7654 3.96704L10.9277 3.17773ZM9.99707 3.43066L9.47255 1.50067L9.47212 1.50079L9.99707 3.43066ZM7.02246 5.15332L5.60825 3.73911L5.60821 3.73914L7.02246 5.15332ZM5.13672 8.90723L7.11528 9.19928L7.11535 9.19883L5.13672 8.90723ZM4.91992 10.376L2.94136 10.0839L2.93806 10.1063L2.93527 10.1286L4.91992 10.376ZM2.80664 18.1709L4.6748 18.885L4.6748 18.885L2.80664 18.1709ZM2.52148 18.9229L0.652729 18.2103L-0.381589 20.9229H2.52148V18.9229ZM21.3359 18.9229V20.9229H24.5232L23.1368 18.0529L21.3359 18.9229ZM21.2617 18.7695L19.4603 19.6385V19.6385L21.2617 18.7695ZM18.5557 10.1973L20.5411 9.95669L20.5381 9.93163L20.5344 9.90667L18.5557 10.1973ZM18.3662 8.90723L20.345 8.61663L20.3448 8.61565L18.3662 8.90723ZM16.4795 5.15332L17.8937 3.73911L17.8937 3.73911L16.4795 5.15332ZM13.5049 3.43066L14.0296 1.50073L14.0294 1.50067L13.5049 3.43066ZM12.5742 3.17773L10.7376 3.96948L11.1193 4.85487L12.0497 5.10773L12.5742 3.17773ZM12.1924 2.29199L10.3554 3.08295L10.3558 3.08374L12.1924 2.29199ZM12.1465 2.20801L13.8053 1.09065L13.7555 1.0168L13.6994 0.94767L12.1465 2.20801ZM12.0918 2.14062L13.6447 0.880287L13.5787 0.798924L13.5045 0.724906L12.0918 2.14062ZM11.751 2L11.751 0L11.6482 -3.9924e-08L11.5459 0.0105441L11.751 2ZM14.2539 21.5381H12.2539C12.2539 21.5944 12.2426 21.6512 12.2201 21.7045L14.0635 22.4805L15.9068 23.2564C16.1357 22.7126 16.2539 22.1281 16.2539 21.5381H14.2539ZM14.0635 22.4805L12.2203 21.7042C12.1992 21.7543 12.1655 21.8057 12.1177 21.8528L13.5205 23.2783L14.9233 24.7039C15.3398 24.294 15.6764 23.8035 15.9067 23.2567L14.0635 22.4805ZM13.5205 23.2783L12.118 21.8525C12.071 21.8987 12.0151 21.9356 11.9541 21.9604L12.709 23.8125L13.4639 25.6646C14.0098 25.442 14.5054 25.1149 14.923 24.7041L13.5205 23.2783ZM12.709 23.8125L11.9543 21.9603C11.8909 21.9862 11.8212 22 11.7508 22L11.751 24L11.7512 26C12.3378 25.9999 12.92 25.8862 13.4636 25.6647L12.709 23.8125ZM11.751 24L11.7513 22C11.6818 22 11.6126 21.9864 11.5483 21.9602L10.7939 23.8125L10.0395 25.6648C10.5821 25.8857 11.1634 25.9999 11.7507 26L11.751 24ZM10.7939 23.8125L11.5486 21.9603C11.4858 21.9347 11.4295 21.8973 11.384 21.8525L9.98145 23.2783L8.57892 24.7041C8.99809 25.1165 9.49495 25.4429 10.0393 25.6647L10.7939 23.8125ZM9.98145 23.2783L11.3844 21.8529C11.3389 21.8082 11.305 21.7573 11.2826 21.7041L9.43945 22.4805L7.59628 23.2568C7.82523 23.8004 8.15979 24.2916 8.57853 24.7037L9.98145 23.2783ZM9.43945 22.4805L11.2827 21.7044C11.2604 21.6512 11.249 21.5945 11.249 21.5381H9.24902H7.24902C7.24902 22.1281 7.3671 22.7125 7.59617 23.2565L9.43945 22.4805ZM9.24902 21.5381H11.249V20.9229H9.24902H7.24902V21.5381H9.24902ZM9.24902 20.9229V18.9229H0.490234V20.9229V22.9229H9.24902V20.9229ZM0.490234 20.9229L0.490672 18.9229C0.586053 18.9229 0.847904 18.9371 1.15572 19.1032C1.50131 19.2897 1.74813 19.5832 1.88204 19.8918C2.08253 20.3539 1.95431 20.6705 2.00705 20.4203C2.09003 20.0267 2.34768 19.3725 2.80685 18.1713C3.6496 15.9667 4.86667 12.6388 5.06864 8.71813L3.07129 8.61523L1.07394 8.51234C0.906618 11.7604 -0.104951 14.5861 -0.929461 16.743C-1.30392 17.7226 -1.73955 18.8012 -1.90693 19.5952C-1.97936 19.9388 -2.12202 20.7129 -1.78742 21.484C-1.58645 21.9472 -1.23542 22.3581 -0.743775 22.6234C-0.289894 22.8683 0.159889 22.9228 0.489797 22.9229L0.490234 20.9229ZM3.07129 8.61523V10.6152H3.1582V8.61523V6.61523H3.07129V8.61523ZM3.1582 8.61523L5.13683 8.90684C5.34516 7.49321 6.00153 6.17459 7.02264 5.15345L5.6084 3.73926L4.19416 2.32507C2.56043 3.95886 1.51219 6.06674 1.17958 8.32363L3.1582 8.61523ZM5.6084 3.73926L7.02261 5.15347C7.85263 4.32346 8.88028 3.73451 9.99663 3.43085L9.47168 1.50098L8.94673 -0.428901C7.1668 0.0552611 5.5236 0.995624 4.19419 2.32504L5.6084 3.73926ZM9.47168 1.50098L11.3088 2.29147C11.3338 2.23348 11.3685 2.18261 11.4103 2.14078L9.99609 0.726562L8.58188 -0.687651C8.17455 -0.28032 7.85587 0.196066 7.63453 0.710482L9.47168 1.50098ZM9.99609 0.726562L11.4103 2.14082C11.5 2.0511 11.6226 2.00002 11.7512 2L11.751 0L11.7507 -2C10.5632 -1.99985 9.42292 -1.52864 8.58193 -0.687697L9.99609 0.726562ZM11.751 0V2C11.879 2 12.0018 2.05092 12.0919 2.14107L13.5059 0.726562L14.9198 -0.687943C14.0792 -1.52822 12.9391 -2 11.751 -2V0ZM13.5059 0.726562L12.0916 2.14078C12.1307 2.17978 12.1658 2.23025 12.1923 2.29194L14.0293 1.50098L15.8662 0.710018C15.6465 0.199746 15.3299 -0.277789 14.9201 -0.687651L13.5059 0.726562ZM14.0293 1.50098L13.5046 3.43092C14.6214 3.73456 15.6492 4.32338 16.4793 5.15347L17.8936 3.73926L19.3078 2.32504C17.9779 0.995162 16.3343 0.0550369 14.554 -0.428969L14.0293 1.50098ZM17.8936 3.73926L16.4793 5.15347C17.501 6.17511 18.1579 7.49378 18.3661 8.90681L20.3447 8.61523L22.3234 8.32366C21.9907 6.066 20.9411 3.95842 19.3078 2.32505L17.8936 3.73926ZM20.3447 8.61523V10.6152H20.4209V8.61523V6.61523H20.3447V8.61523ZM20.4209 8.61523L18.424 8.72619C18.6789 13.3138 20.2571 16.6867 21.2618 18.7697C21.5191 19.3029 21.7105 19.6939 21.8524 20.0227C22.0073 20.3819 22.0127 20.4691 22.0059 20.4119C21.9921 20.2966 21.9712 19.655 22.5638 19.1782C22.9683 18.8527 23.3054 18.9228 23.0117 18.9229L23.0117 20.9229L23.0117 22.9229C23.4999 22.9228 24.357 22.8693 25.0711 22.2948C25.9732 21.5691 26.0513 20.5532 25.9775 19.9364C25.9106 19.3778 25.697 18.8366 25.5252 18.4384C25.3405 18.01 25.0977 17.515 24.8646 17.0318C23.908 15.0488 22.6269 12.2679 22.4178 8.50428L20.4209 8.61523ZM23.0117 20.9229V18.9229H14.2539V20.9229V22.9229H23.0117V20.9229ZM14.2539 20.9229H12.2539V21.5381H14.2539H16.2539V20.9229H14.2539ZM11.6562 2.00977L11.2638 0.0486474C10.7955 0.142358 10.3508 0.371669 9.99618 0.726174L11.4102 2.14062L12.8241 3.55508C12.604 3.7751 12.3312 3.91435 12.0487 3.97088L11.6562 2.00977ZM11.4102 2.14062L9.99594 0.726412C9.77477 0.947586 9.59678 1.20974 9.47195 1.49935L11.3086 2.29102L13.1452 3.08268C13.0703 3.25656 12.962 3.4172 12.8244 3.55484L11.4102 2.14062ZM11.3086 2.29102L9.47093 1.50171L9.09007 2.38843L10.9277 3.17773L12.7654 3.96704L13.1463 3.08032L11.3086 2.29102ZM10.9277 3.17773L10.4032 1.24774L9.47255 1.50067L9.99707 3.43066L10.5216 5.36066L11.4523 5.10773L10.9277 3.17773ZM9.99707 3.43066L9.47212 1.50079C8.02425 1.89462 6.68816 2.65919 5.60825 3.73911L7.02246 5.15332L8.43667 6.56753C9.01679 5.98742 9.7372 5.57402 10.522 5.36054L9.99707 3.43066ZM7.02246 5.15332L5.60821 3.73914C4.28065 5.06677 3.42853 6.78061 3.15809 8.61562L5.13672 8.90723L7.11535 9.19883C7.26157 8.20662 7.72208 7.28216 8.43671 6.5675L7.02246 5.15332ZM5.13672 8.90723L3.15816 8.61518L2.94136 10.0839L4.91992 10.376L6.89848 10.668L7.11528 9.19928L5.13672 8.90723ZM4.91992 10.376L2.93527 10.1286C2.56824 13.0738 1.65074 15.5935 0.938481 17.4568L2.80664 18.1709L4.6748 18.885C5.40488 16.9751 6.47423 14.0764 6.90457 10.6233L4.91992 10.376ZM2.80664 18.1709L0.938483 17.4568C0.841633 17.7101 0.721832 18.0291 0.652729 18.2103L2.52148 18.9229L4.39024 19.6354C4.49139 19.3701 4.55873 19.1887 4.6748 18.885L2.80664 18.1709ZM2.52148 18.9229V20.9229H21.3359V18.9229V16.9229H2.52148V18.9229ZM21.3359 18.9229L23.1368 18.0529C23.1052 17.9875 23.0921 17.9607 23.0631 17.9006L21.2617 18.7695L19.4603 19.6385C19.4819 19.6832 19.5186 19.7587 19.535 19.7928L21.3359 18.9229ZM21.2617 18.7695L23.0631 17.9006C22.1888 16.0882 20.9655 13.4585 20.5411 9.95669L18.5557 10.1973L16.5702 10.4378C17.0773 14.6228 18.5463 17.7436 19.4603 19.6385L21.2617 18.7695ZM18.5557 10.1973L20.5344 9.90667L20.345 8.61663L18.3662 8.90723L16.3874 9.19783L16.5769 10.4879L18.5557 10.1973ZM18.3662 8.90723L20.3448 8.61565C20.0744 6.78056 19.2214 5.0668 17.8937 3.73911L16.4795 5.15332L15.0653 6.56753C15.7809 7.28313 16.2415 8.20784 16.3876 9.1988L18.3662 8.90723ZM16.4795 5.15332L17.8937 3.73911C16.8139 2.6593 15.4783 1.89462 14.0296 1.50073L13.5049 3.43066L12.9801 5.36059C13.765 5.57402 14.485 5.98725 15.0653 6.56753L16.4795 5.15332ZM13.5049 3.43066L14.0294 1.50067L13.0987 1.24774L12.5742 3.17773L12.0497 5.10773L12.9804 5.36066L13.5049 3.43066ZM12.5742 3.17773L14.4108 2.38599L14.029 1.50025L12.1924 2.29199L10.3558 3.08374L10.7376 3.96948L12.5742 3.17773ZM12.1924 2.29199L14.0293 1.50103C13.9638 1.34878 13.887 1.21205 13.8053 1.09065L12.1465 2.20801L10.4877 3.32537C10.4399 3.25436 10.3944 3.17354 10.3554 3.08295L12.1924 2.29199ZM12.1465 2.20801L13.6994 0.94767L13.6447 0.880287L12.0918 2.14062L10.5389 3.40096L10.5936 3.46835L12.1465 2.20801ZM12.0918 2.14062L13.5045 0.724906C13.0377 0.259076 12.4061 2.54384e-07 11.751 0L11.751 2L11.751 4C11.3516 4 10.9656 3.84225 10.6791 3.55634L12.0918 2.14062ZM11.751 2L11.5459 0.0105441L11.4512 0.0203098L11.6562 2.00977L11.8613 3.99922L11.9561 3.98946L11.751 2Z" fill="#032F89" mask="url(#path-1-inside-1_789_1012)"/>
</svg>
