<svg width="25" height="23" viewBox="0 0 25 23" fill="none" xmlns="http://www.w3.org/2000/svg">
<path d="M10 0C15.5228 0 20 4.47715 20 10C20 12.0183 19.3995 13.8953 18.3711 15.4668L24.6709 21.2588C25.0774 21.6326 25.1043 22.2653 24.7305 22.6719C24.3566 23.0783 23.7239 23.1043 23.3174 22.7305L17.1133 17.0264C15.3003 18.8616 12.7835 20 10 20C4.47715 20 0 15.5228 0 10C0 4.47715 4.47715 0 10 0ZM10 2C5.58172 2 2 5.58172 2 10C2 14.4183 5.58172 18 10 18C14.4183 18 18 14.4183 18 10C18 5.58172 14.4183 2 10 2Z" fill="#032F89"/>
</svg>
