<svg width="22" height="20" viewBox="0 0 22 20" fill="none" xmlns="http://www.w3.org/2000/svg">
<path d="M10.875 4.625C10.875 4.625 10.875 4.625 10.0833 3.58333C9.16667 2.375 7.8125 1.5 6.1875 1.5C3.59375 1.5 1.5 3.59375 1.5 6.1875C1.5 7.15625 1.79167 8.05208 2.29167 8.79167C3.13542 10.0521 10.875 18.1667 10.875 18.1667M10.875 4.625C10.875 4.625 10.875 4.625 11.6667 3.58333C12.5833 2.375 13.9375 1.5 15.5625 1.5C18.1562 1.5 20.25 3.59375 20.25 6.1875C20.25 7.15625 19.9583 8.05208 19.4583 8.79167C18.6146 10.0521 10.875 18.1667 10.875 18.1667" fill="#0453F4" stroke="#0453F4" stroke-width="3" stroke-linecap="round" stroke-linejoin="round"/>
</svg>
