<svg width="99" height="71" viewBox="0 0 99 71" fill="none" xmlns="http://www.w3.org/2000/svg">
<mask id="path-1-outside-1_743_1771" maskUnits="userSpaceOnUse" x="0" y="9" width="33" height="40" fill="black">
<rect fill="white" y="9" width="33" height="40"/>
<path d="M17.5752 34.5L10.0801 34.4756L11.1299 28.543L17.8926 28.5918C18.9831 28.5755 19.9027 28.3151 20.6514 27.8105C21.4163 27.306 22.0186 26.6468 22.458 25.833C22.8975 25.0029 23.1823 24.0752 23.3125 23.0498C23.4264 22.2848 23.4346 21.4792 23.3369 20.6328C23.2555 19.7865 22.9951 19.0622 22.5557 18.46C22.1325 17.8415 21.4489 17.4997 20.5049 17.4346L15.3535 17.3857L10.2266 47H3.24414L9.39648 11.4531L20.8223 11.4775C22.987 11.5426 24.8099 12.096 26.291 13.1377C27.7884 14.1794 28.8789 15.5628 29.5625 17.2881C30.2461 18.9971 30.4984 20.9014 30.3193 23.001C30.1077 25.361 29.4323 27.3955 28.293 29.1045C27.1699 30.8135 25.6807 32.1481 23.8252 33.1084C21.9697 34.0524 19.8864 34.5163 17.5752 34.5Z"/>
</mask>
<path d="M17.5752 34.5L10.0801 34.4756L11.1299 28.543L17.8926 28.5918C18.9831 28.5755 19.9027 28.3151 20.6514 27.8105C21.4163 27.306 22.0186 26.6468 22.458 25.833C22.8975 25.0029 23.1823 24.0752 23.3125 23.0498C23.4264 22.2848 23.4346 21.4792 23.3369 20.6328C23.2555 19.7865 22.9951 19.0622 22.5557 18.46C22.1325 17.8415 21.4489 17.4997 20.5049 17.4346L15.3535 17.3857L10.2266 47H3.24414L9.39648 11.4531L20.8223 11.4775C22.987 11.5426 24.8099 12.096 26.291 13.1377C27.7884 14.1794 28.8789 15.5628 29.5625 17.2881C30.2461 18.9971 30.4984 20.9014 30.3193 23.001C30.1077 25.361 29.4323 27.3955 28.293 29.1045C27.1699 30.8135 25.6807 32.1481 23.8252 33.1084C21.9697 34.0524 19.8864 34.5163 17.5752 34.5Z" fill="#0C63C5"/>
<path d="M17.5752 34.5L17.5893 32.5L17.5817 32.5L17.5752 34.5ZM10.0801 34.4756L8.11067 34.1271L7.69647 36.4678L10.0736 36.4756L10.0801 34.4756ZM11.1299 28.543L11.1443 26.543L9.45487 26.5308L9.16048 28.1945L11.1299 28.543ZM17.8926 28.5918L17.8781 30.5917L17.9003 30.5919L17.9224 30.5916L17.8926 28.5918ZM20.6514 27.8105L19.5502 26.141L19.5419 26.1465L19.5337 26.152L20.6514 27.8105ZM22.458 25.833L24.2178 26.7833L24.2217 26.7761L24.2256 26.7688L22.458 25.833ZM23.3125 23.0498L21.3343 22.7552L21.3311 22.7765L21.3284 22.7979L23.3125 23.0498ZM23.3369 20.6328L21.3461 20.8242L21.3479 20.8432L21.3501 20.8621L23.3369 20.6328ZM22.5557 18.46L20.9051 19.5893L20.9222 19.6144L20.9401 19.6389L22.5557 18.46ZM20.5049 17.4346L20.6425 15.4393L20.5832 15.4352L20.5238 15.4347L20.5049 17.4346ZM15.3535 17.3857L15.3725 15.3858L13.6728 15.3697L13.3828 17.0446L15.3535 17.3857ZM10.2266 47V49H11.9101L12.1972 47.3412L10.2266 47ZM3.24414 47L1.27344 46.6589L0.868252 49H3.24414V47ZM9.39648 11.4531L9.40076 9.45313L7.71353 9.44952L7.42578 11.112L9.39648 11.4531ZM20.8223 11.4775L20.8824 9.47844L20.8545 9.4776L20.8265 9.47754L20.8223 11.4775ZM26.291 13.1377L25.1405 14.7736L25.1489 14.7795L26.291 13.1377ZM29.5625 17.2881L27.7031 18.0248L27.7055 18.0309L29.5625 17.2881ZM30.3193 23.001L32.3114 23.1796L32.3121 23.1709L30.3193 23.001ZM28.293 29.1045L26.6288 27.9951L26.6216 28.0061L28.293 29.1045ZM23.8252 33.1084L24.7321 34.891L24.7445 34.8846L23.8252 33.1084ZM17.5752 34.5L17.5817 32.5L10.0866 32.4756L10.0801 34.4756L10.0736 36.4756L17.5687 36.5L17.5752 34.5ZM10.0801 34.4756L12.0495 34.8241L13.0993 28.8915L11.1299 28.543L9.16048 28.1945L8.11067 34.1271L10.0801 34.4756ZM11.1299 28.543L11.1154 30.5429L17.8781 30.5917L17.8926 28.5918L17.907 26.5918L11.1443 26.543L11.1299 28.543ZM17.8926 28.5918L17.9224 30.5916C19.3194 30.5707 20.637 30.232 21.7691 29.4691L20.6514 27.8105L19.5337 26.152C19.1683 26.3982 18.6467 26.5803 17.8627 26.592L17.8926 28.5918ZM20.6514 27.8105L21.7526 29.4801C22.7957 28.7921 23.6231 27.8847 24.2178 26.7833L22.458 25.833L20.6982 24.8827C20.4141 25.4089 20.037 25.8199 19.5502 26.141L20.6514 27.8105ZM22.458 25.833L24.2256 26.7688C24.7886 25.7053 25.139 24.5423 25.2966 23.3018L23.3125 23.0498L21.3284 22.7979C21.2255 23.6081 21.0063 24.3006 20.6904 24.8972L22.458 25.833ZM23.3125 23.0498L25.2907 23.3444C25.4329 22.3894 25.4395 21.4067 25.3237 20.4036L23.3369 20.6328L21.3501 20.8621C21.4297 21.5516 21.4199 22.1803 21.3343 22.7552L23.3125 23.0498ZM23.3369 20.6328L25.3277 20.4414C25.217 19.2893 24.8504 18.2116 24.1712 17.281L22.5557 18.46L20.9401 19.6389C21.1399 19.9127 21.2941 20.2837 21.3461 20.8242L23.3369 20.6328ZM22.5557 18.46L24.2063 17.3306C23.3493 16.078 22.0212 15.5344 20.6425 15.4393L20.5049 17.4346L20.3673 19.4298C20.6366 19.4484 20.7745 19.5003 20.8312 19.5286C20.8753 19.5506 20.8893 19.5664 20.9051 19.5893L22.5557 18.46ZM20.5049 17.4346L20.5238 15.4347L15.3725 15.3858L15.3535 17.3857L15.3346 19.3857L20.4859 19.4345L20.5049 17.4346ZM15.3535 17.3857L13.3828 17.0446L8.25588 46.6588L10.2266 47L12.1972 47.3412L17.3242 17.7269L15.3535 17.3857ZM10.2266 47V45H3.24414V47V49H10.2266V47ZM3.24414 47L5.21484 47.3411L11.3672 11.7942L9.39648 11.4531L7.42578 11.112L1.27344 46.6589L3.24414 47ZM9.39648 11.4531L9.39221 13.4531L20.818 13.4775L20.8223 11.4775L20.8265 9.47754L9.40076 9.45313L9.39648 11.4531ZM20.8223 11.4775L20.7621 13.4766C22.6135 13.5323 24.0377 13.998 25.1405 14.7736L26.291 13.1377L27.4416 11.5018C25.5821 10.194 23.3605 9.55297 20.8824 9.47844L20.8223 11.4775ZM26.291 13.1377L25.1489 14.7795C26.3175 15.5925 27.1618 16.6585 27.7031 18.0248L29.5625 17.2881L31.4219 16.5514C30.5961 14.4672 29.2593 12.7663 27.4331 11.4959L26.291 13.1377ZM29.5625 17.2881L27.7055 18.0309C28.2576 19.411 28.483 20.9969 28.3266 22.8311L30.3193 23.001L32.3121 23.1709C32.5138 20.8058 32.2346 18.5831 31.4195 16.5453L29.5625 17.2881ZM30.3193 23.001L28.3273 22.8224C28.141 24.9012 27.5561 26.6042 26.6289 27.9951L28.293 29.1045L29.9571 30.2139C31.3085 28.1868 32.0745 25.8208 32.3113 23.1796L30.3193 23.001ZM28.293 29.1045L26.6216 28.0061C25.6912 29.422 24.4636 30.526 22.9059 31.3322L23.8252 33.1084L24.7445 34.8846C26.8977 33.7702 28.6487 32.205 29.9644 30.2028L28.293 29.1045ZM23.8252 33.1084L22.9183 31.3258C21.3783 32.1093 19.6163 32.5143 17.5893 32.5L17.5752 34.5L17.5611 36.5C20.1565 36.5182 22.5612 35.9955 24.7321 34.891L23.8252 33.1084Z" fill="white" mask="url(#path-1-outside-1_743_1771)"/>
<mask id="path-3-outside-2_743_1771" maskUnits="userSpaceOnUse" x="11" y="21" width="35" height="40" fill="black">
<rect fill="white" x="11" y="21" width="35" height="40"/>
<path d="M34.7734 30.1426L22.4443 59H14.876L31.7949 23.4531H36.5801L34.7734 30.1426ZM35.7012 59L33.2354 29.5566L33.626 23.4531H38.167L42.8301 59H35.7012ZM38.1914 45.7432L37.1416 51.6758H21.5166L22.5664 45.7432H38.1914Z"/>
</mask>
<path d="M34.7734 30.1426L22.4443 59H14.876L31.7949 23.4531H36.5801L34.7734 30.1426ZM35.7012 59L33.2354 29.5566L33.626 23.4531H38.167L42.8301 59H35.7012ZM38.1914 45.7432L37.1416 51.6758H21.5166L22.5664 45.7432H38.1914Z" fill="#0C63C5"/>
<path d="M34.7734 30.1426L36.6126 30.9284L36.6677 30.7994L36.7043 30.664L34.7734 30.1426ZM22.4443 59V61H23.7647L24.2835 59.7858L22.4443 59ZM14.876 59L13.0701 58.1405L11.7091 61H14.876V59ZM31.7949 23.4531V21.4531H30.5319L29.989 22.5936L31.7949 23.4531ZM36.5801 23.4531L38.5109 23.9746L39.1919 21.4531H36.5801V23.4531ZM35.7012 59L33.7081 59.1669L33.8617 61H35.7012V59ZM33.2354 29.5566L31.2394 29.4289L31.23 29.5763L31.2423 29.7236L33.2354 29.5566ZM33.626 23.4531V21.4531H31.7499L31.6301 23.3254L33.626 23.4531ZM38.167 23.4531L40.15 23.193L39.9218 21.4531H38.167V23.4531ZM42.8301 59V61H45.1096L44.8131 58.7399L42.8301 59ZM38.1914 45.7432L40.1608 46.0917L40.5764 43.7432H38.1914V45.7432ZM37.1416 51.6758V53.6758H38.8188L39.111 52.0243L37.1416 51.6758ZM21.5166 51.6758L19.5472 51.3273L19.1316 53.6758H21.5166V51.6758ZM22.5664 45.7432V43.7432H20.8892L20.597 45.3947L22.5664 45.7432ZM34.7734 30.1426L32.9343 29.3568L20.6052 58.2142L22.4443 59L24.2835 59.7858L36.6126 30.9284L34.7734 30.1426ZM22.4443 59V57H14.876V59V61H22.4443V59ZM14.876 59L16.6819 59.8595L33.6008 24.3127L31.7949 23.4531L29.989 22.5936L13.0701 58.1405L14.876 59ZM31.7949 23.4531V25.4531H36.5801V23.4531V21.4531H31.7949V23.4531ZM36.5801 23.4531L34.6493 22.9317L32.8426 29.6211L34.7734 30.1426L36.7043 30.664L38.5109 23.9746L36.5801 23.4531ZM35.7012 59L37.6942 58.8331L35.2284 29.3897L33.2354 29.5566L31.2423 29.7236L33.7081 59.1669L35.7012 59ZM33.2354 29.5566L35.2313 29.6844L35.6219 23.5809L33.626 23.4531L31.6301 23.3254L31.2394 29.4289L33.2354 29.5566ZM33.626 23.4531V25.4531H38.167V23.4531V21.4531H33.626V23.4531ZM38.167 23.4531L36.184 23.7133L40.8471 59.2601L42.8301 59L44.8131 58.7399L40.15 23.193L38.167 23.4531ZM42.8301 59V57H35.7012V59V61H42.8301V59ZM38.1914 45.7432L36.222 45.3947L35.1722 51.3273L37.1416 51.6758L39.111 52.0243L40.1608 46.0917L38.1914 45.7432ZM37.1416 51.6758V49.6758H21.5166V51.6758V53.6758H37.1416V51.6758ZM21.5166 51.6758L23.486 52.0243L24.5358 46.0917L22.5664 45.7432L20.597 45.3947L19.5472 51.3273L21.5166 51.6758ZM22.5664 45.7432V47.7432H38.1914V45.7432V43.7432H22.5664V45.7432Z" fill="white" mask="url(#path-3-outside-2_743_1771)"/>
<mask id="path-5-outside-3_743_1771" maskUnits="userSpaceOnUse" x="39" y="8" width="30" height="42" fill="black">
<rect fill="white" x="39" y="8" width="30" height="42"/>
<path d="M57.6279 35.1836L64.3418 35.0859C64.0814 37.5599 63.3896 39.7409 62.2666 41.6289C61.1598 43.5169 59.6543 44.9818 57.75 46.0234C55.862 47.0651 53.6322 47.5534 51.0605 47.4883C48.9284 47.4395 47.1624 46.9756 45.7627 46.0967C44.3792 45.2015 43.3132 44.0296 42.5645 42.5811C41.832 41.1162 41.3682 39.4967 41.1729 37.7227C40.9775 35.9323 41.002 34.1094 41.2461 32.2539L42.1494 26.2236C42.4424 24.2542 42.9388 22.3499 43.6387 20.5107C44.3385 18.6553 45.2663 17.0033 46.4219 15.5547C47.5938 14.0898 49.0179 12.9424 50.6943 12.1123C52.387 11.2822 54.3402 10.8916 56.5537 10.9404C59.0928 10.9893 61.111 11.5833 62.6084 12.7227C64.1058 13.8457 65.18 15.3512 65.8311 17.2393C66.4821 19.1273 66.8076 21.2188 66.8076 23.5137L59.8496 23.4893C59.9147 22.3825 59.8984 21.3327 59.8008 20.3398C59.7194 19.3307 59.402 18.5088 58.8486 17.874C58.2952 17.223 57.3512 16.873 56.0166 16.8242C54.7145 16.7754 53.6403 17.0358 52.7939 17.6055C51.9639 18.1751 51.2965 18.932 50.792 19.876C50.3037 20.82 49.9294 21.8454 49.6689 22.9521C49.4248 24.0589 49.2295 25.1331 49.083 26.1748L48.2285 32.2783C48.1146 33.1247 48.0088 34.0768 47.9111 35.1348C47.8298 36.1764 47.846 37.1855 47.96 38.1621C48.0902 39.1224 48.4238 39.9281 48.9609 40.5791C49.5143 41.2301 50.3932 41.5801 51.5977 41.6289C52.9974 41.694 54.096 41.4417 54.8936 40.8721C55.7074 40.3024 56.3096 39.5212 56.7002 38.5283C57.1071 37.5192 57.4163 36.4043 57.6279 35.1836Z"/>
</mask>
<path d="M57.6279 35.1836L64.3418 35.0859C64.0814 37.5599 63.3896 39.7409 62.2666 41.6289C61.1598 43.5169 59.6543 44.9818 57.75 46.0234C55.862 47.0651 53.6322 47.5534 51.0605 47.4883C48.9284 47.4395 47.1624 46.9756 45.7627 46.0967C44.3792 45.2015 43.3132 44.0296 42.5645 42.5811C41.832 41.1162 41.3682 39.4967 41.1729 37.7227C40.9775 35.9323 41.002 34.1094 41.2461 32.2539L42.1494 26.2236C42.4424 24.2542 42.9388 22.3499 43.6387 20.5107C44.3385 18.6553 45.2663 17.0033 46.4219 15.5547C47.5938 14.0898 49.0179 12.9424 50.6943 12.1123C52.387 11.2822 54.3402 10.8916 56.5537 10.9404C59.0928 10.9893 61.111 11.5833 62.6084 12.7227C64.1058 13.8457 65.18 15.3512 65.8311 17.2393C66.4821 19.1273 66.8076 21.2188 66.8076 23.5137L59.8496 23.4893C59.9147 22.3825 59.8984 21.3327 59.8008 20.3398C59.7194 19.3307 59.402 18.5088 58.8486 17.874C58.2952 17.223 57.3512 16.873 56.0166 16.8242C54.7145 16.7754 53.6403 17.0358 52.7939 17.6055C51.9639 18.1751 51.2965 18.932 50.792 19.876C50.3037 20.82 49.9294 21.8454 49.6689 22.9521C49.4248 24.0589 49.2295 25.1331 49.083 26.1748L48.2285 32.2783C48.1146 33.1247 48.0088 34.0768 47.9111 35.1348C47.8298 36.1764 47.846 37.1855 47.96 38.1621C48.0902 39.1224 48.4238 39.9281 48.9609 40.5791C49.5143 41.2301 50.3932 41.5801 51.5977 41.6289C52.9974 41.694 54.096 41.4417 54.8936 40.8721C55.7074 40.3024 56.3096 39.5212 56.7002 38.5283C57.1071 37.5192 57.4163 36.4043 57.6279 35.1836Z" fill="#0C63C5"/>
<path d="M57.6279 35.1836L57.5988 33.1838L55.9406 33.2079L55.6573 34.842L57.6279 35.1836ZM64.3418 35.0859L66.3308 35.2953L66.5668 33.0534L64.3127 33.0861L64.3418 35.0859ZM62.2666 41.6289L60.5477 40.6064L60.5412 40.6175L62.2666 41.6289ZM57.75 46.0234L56.7902 44.2688L56.7838 44.2723L57.75 46.0234ZM51.0605 47.4883L51.1112 45.4889L51.1063 45.4888L51.0605 47.4883ZM45.7627 46.0967L44.6762 47.7758L44.6876 47.7832L44.6992 47.7905L45.7627 46.0967ZM42.5645 42.5811L40.7756 43.4755L40.7816 43.4875L40.7877 43.4994L42.5645 42.5811ZM41.1729 37.7227L39.1846 37.9396L39.1849 37.9415L41.1729 37.7227ZM41.2461 32.2539L39.2682 31.9576L39.2655 31.9753L39.2632 31.993L41.2461 32.2539ZM42.1494 26.2236L44.1273 26.5199L44.1276 26.5179L42.1494 26.2236ZM43.6387 20.5107L45.5079 21.222L45.51 21.2166L43.6387 20.5107ZM46.4219 15.5547L44.8601 14.3053L44.8584 14.3074L46.4219 15.5547ZM50.6943 12.1123L49.8137 10.3166L49.8069 10.32L50.6943 12.1123ZM56.5537 10.9404L56.5096 12.94L56.5153 12.9401L56.5537 10.9404ZM62.6084 12.7227L61.3973 14.3144L61.4084 14.3227L62.6084 12.7227ZM66.8076 23.5137L66.8006 25.5137L68.8076 25.5207V23.5137H66.8076ZM59.8496 23.4893L57.8531 23.3718L57.7289 25.4818L59.8426 25.4892L59.8496 23.4893ZM59.8008 20.3398L57.8073 20.5006L57.8087 20.5181L57.8104 20.5356L59.8008 20.3398ZM58.8486 17.874L57.3248 19.1693L57.3329 19.1789L57.3411 19.1883L58.8486 17.874ZM56.0166 16.8242L55.9417 18.8228L55.9435 18.8229L56.0166 16.8242ZM52.7939 17.6055L51.6772 15.9463L51.6697 15.9513L51.6623 15.9564L52.7939 17.6055ZM50.792 19.876L49.0281 18.9332L49.0218 18.9451L49.0156 18.9571L50.792 19.876ZM49.6689 22.9521L47.7221 22.4941L47.7189 22.5077L47.7159 22.5213L49.6689 22.9521ZM49.083 26.1748L47.1025 25.8963L47.1023 25.8975L49.083 26.1748ZM48.2285 32.2783L46.2478 32.001L46.2464 32.0115L48.2285 32.2783ZM47.9111 35.1348L45.9196 34.9509L45.9183 34.965L45.9172 34.979L47.9111 35.1348ZM47.96 38.1621L45.9734 38.3939L45.9756 38.4124L45.9781 38.4308L47.96 38.1621ZM48.9609 40.5791L47.4182 41.8519L47.4275 41.8632L47.4371 41.8744L48.9609 40.5791ZM51.5977 41.6289L51.6906 39.631L51.6787 39.6305L51.5977 41.6289ZM54.8936 40.8721L53.7466 39.2336L53.7388 39.2391L53.7311 39.2446L54.8936 40.8721ZM56.7002 38.5283L54.8453 37.7804L54.8422 37.7882L54.8391 37.7961L56.7002 38.5283ZM57.6279 35.1836L57.657 37.1834L64.3709 37.0857L64.3418 35.0859L64.3127 33.0861L57.5988 33.1838L57.6279 35.1836ZM64.3418 35.0859L62.3528 34.8766C62.1186 37.1013 61.5046 38.9977 60.5477 40.6065L62.2666 41.6289L63.9855 42.6514C65.2747 40.4841 66.0442 38.0185 66.3308 35.2953L64.3418 35.0859ZM62.2666 41.6289L60.5412 40.6175C59.616 42.1957 58.3739 43.4025 56.7902 44.2688L57.75 46.0234L58.7098 47.7781C60.9347 46.5611 62.7036 44.8381 63.992 42.6403L62.2666 41.6289ZM57.75 46.0234L56.7838 44.2723C55.2619 45.112 53.3966 45.5468 51.1112 45.4889L51.0605 47.4883L51.0099 49.4876C53.8677 49.56 56.4621 49.0182 58.7162 47.7746L57.75 46.0234ZM51.0605 47.4883L51.1063 45.4888C49.2321 45.4459 47.8439 45.0419 46.8262 44.4029L45.7627 46.0967L44.6992 47.7905C46.481 48.9093 48.6247 49.433 51.0148 49.4878L51.0605 47.4883ZM45.7627 46.0967L46.8492 44.4175C45.7549 43.7095 44.9282 42.7985 44.3412 41.6628L42.5645 42.5811L40.7877 43.4994C41.6981 45.2607 43.0036 46.6935 44.6762 47.7758L45.7627 46.0967ZM42.5645 42.5811L44.3533 41.6866C43.7358 40.4516 43.3326 39.0638 43.1608 37.5038L41.1729 37.7227L39.1849 37.9415C39.4037 39.9297 39.9282 41.7808 40.7756 43.4755L42.5645 42.5811ZM41.1729 37.7227L43.1611 37.5058C42.9837 35.8804 43.0049 34.218 43.229 32.5148L41.2461 32.2539L39.2632 31.993C38.999 34.0007 38.9713 35.9842 39.1846 37.9396L41.1729 37.7227ZM41.2461 32.2539L43.224 32.5502L44.1273 26.5199L42.1494 26.2236L40.1715 25.9273L39.2682 31.9576L41.2461 32.2539ZM42.1494 26.2236L44.1276 26.5179C44.3997 24.6894 44.8599 22.925 45.5079 21.222L43.6387 20.5107L41.7694 19.7994C41.0177 21.7749 40.4851 23.8191 40.1712 25.9293L42.1494 26.2236ZM43.6387 20.5107L45.51 21.2166C46.1413 19.5428 46.9688 18.0761 47.9853 16.8019L46.4219 15.5547L44.8584 14.3074C43.5637 15.9304 42.5358 17.7677 41.7674 19.8049L43.6387 20.5107ZM46.4219 15.5547L47.9836 16.8041C48.9736 15.5666 50.1678 14.6047 51.5818 13.9046L50.6943 12.1123L49.8069 10.32C47.868 11.28 46.2139 12.6131 44.8601 14.3053L46.4219 15.5547ZM50.6943 12.1123L51.5749 13.908C52.9339 13.2416 54.5604 12.8969 56.5096 12.9399L56.5537 10.9404L56.5978 8.94092C54.1199 8.88626 51.8401 9.32288 49.8137 10.3166L50.6943 12.1123ZM56.5537 10.9404L56.5153 12.9401C58.7763 12.9835 60.3379 13.5082 61.3974 14.3143L62.6084 12.7227L63.8194 11.131C61.8841 9.65843 59.4092 8.99497 56.5922 8.9408L56.5537 10.9404ZM62.6084 12.7227L61.4084 14.3227C62.5642 15.1895 63.4104 16.3545 63.9403 17.8912L65.8311 17.2393L67.7218 16.5873C66.9496 14.3479 65.6474 12.5019 63.8084 11.1227L62.6084 12.7227ZM65.8311 17.2393L63.9403 17.8912C64.5091 19.5408 64.8076 21.4081 64.8076 23.5137H66.8076H68.8076C68.8076 21.0294 68.4551 18.7137 67.7218 16.5873L65.8311 17.2393ZM66.8076 23.5137L66.8146 21.5137L59.8566 21.4893L59.8496 23.4893L59.8426 25.4892L66.8006 25.5137L66.8076 23.5137ZM59.8496 23.4893L61.8462 23.6067C61.9167 22.4069 61.9001 21.2517 61.7912 20.1441L59.8008 20.3398L57.8104 20.5356C57.8967 21.4136 57.9127 22.3581 57.8531 23.3718L59.8496 23.4893ZM59.8008 20.3398L61.7943 20.1791C61.6857 18.8319 61.244 17.5782 60.3562 16.5598L58.8486 17.874L57.3411 19.1883C57.56 19.4394 57.7531 19.8296 57.8073 20.5006L59.8008 20.3398ZM58.8486 17.874L60.3725 16.5787C59.2938 15.3097 57.6741 14.8835 56.0897 14.8256L56.0166 16.8242L55.9435 18.8229C57.0284 18.8626 57.2967 19.1363 57.3248 19.1693L58.8486 17.874ZM56.0166 16.8242L56.0915 14.8256C54.4841 14.7653 52.9614 15.0819 51.6772 15.9463L52.7939 17.6055L53.9107 19.2646C54.3192 18.9897 54.9449 18.7854 55.9417 18.8228L56.0166 16.8242ZM52.7939 17.6055L51.6623 15.9564C50.5513 16.7189 49.674 17.7249 49.0281 18.9332L50.792 19.876L52.5559 20.8187C52.9191 20.139 53.3765 19.6314 53.9256 19.2545L52.7939 17.6055ZM50.792 19.876L49.0156 18.9571C48.4467 20.0569 48.0176 21.2384 47.7221 22.4941L49.6689 22.9521L51.6158 23.4102C51.8412 22.4524 52.1607 21.583 52.5684 20.7948L50.792 19.876ZM49.6689 22.9521L47.7159 22.5213C47.4615 23.6747 47.2567 24.7998 47.1025 25.8963L49.083 26.1748L51.0635 26.4533C51.2023 25.4665 51.3881 24.4432 51.622 23.383L49.6689 22.9521ZM49.083 26.1748L47.1023 25.8975L46.2478 32.001L48.2285 32.2783L50.2092 32.5556L51.0637 26.4521L49.083 26.1748ZM48.2285 32.2783L46.2464 32.0115C46.128 32.8911 46.0192 33.8716 45.9196 34.9509L47.9111 35.1348L49.9027 35.3186C49.9984 34.282 50.1012 33.3582 50.2106 32.5451L48.2285 32.2783ZM47.9111 35.1348L45.9172 34.979C45.8264 36.1417 45.8436 37.2809 45.9734 38.3939L47.96 38.1621L49.9465 37.9303C49.8485 37.0902 49.8331 36.2111 49.9051 35.2905L47.9111 35.1348ZM47.96 38.1621L45.9781 38.4308C46.1508 39.7043 46.6106 40.873 47.4182 41.8519L48.9609 40.5791L50.5037 39.3063C50.237 38.9831 50.0296 38.5405 49.9418 37.8934L47.96 38.1621ZM48.9609 40.5791L47.4371 41.8744C48.4805 43.102 49.9891 43.5653 51.5166 43.6273L51.5977 41.6289L51.6787 39.6305C50.7973 39.5948 50.5481 39.3583 50.4848 39.2838L48.9609 40.5791ZM51.5977 41.6289L51.5047 43.6267C53.1651 43.704 54.7654 43.4214 56.056 42.4995L54.8936 40.8721L53.7311 39.2446C53.4266 39.4621 52.8297 39.684 51.6906 39.6311L51.5977 41.6289ZM54.8936 40.8721L56.0405 42.5105C57.2003 41.6987 58.038 40.5907 58.5613 39.2606L56.7002 38.5283L54.8391 37.7961C54.5812 38.4516 54.2144 38.9062 53.7466 39.2336L54.8936 40.8721ZM56.7002 38.5283L58.5551 39.2763C59.0215 38.1196 59.3661 36.8662 59.5985 35.5252L57.6279 35.1836L55.6573 34.842C55.4666 35.9423 55.1927 36.9188 54.8453 37.7804L56.7002 38.5283Z" fill="white" mask="url(#path-5-outside-3_743_1771)"/>
<path d="M79 22C90.0457 22 99 30.9543 99 42C99 53.0457 90.0457 62 79 62C67.9543 62 59 53.0457 59 42C59 30.9543 67.9543 22 79 22ZM71.2725 51.1777C73.2104 52.8111 75.6711 53.8437 78.3691 53.9834V45.4082C78.0359 45.3224 77.7218 45.1886 77.4355 45.0137L71.2725 51.1777ZM80.9814 45.0381C80.7071 45.2002 80.4091 45.3268 80.0928 45.4082V53.9492C82.7076 53.7131 85.0787 52.6377 86.9385 50.9951L80.9814 45.0381ZM67.0361 42.9307C67.2429 45.6264 68.3417 48.0713 70.0361 49.9746L76.2354 43.7754C76.0857 43.5133 75.9686 43.2301 75.8916 42.9307H67.0361ZM82.5703 42.9307C82.4889 43.247 82.3623 43.5449 82.2002 43.8193L88.1455 49.7646C89.7363 47.8928 90.7646 45.5285 90.9639 42.9307H82.5703ZM79.2998 40C78.1953 40.0001 77.2998 40.8955 77.2998 42C77.2998 43.1045 78.1953 43.9999 79.2998 44C80.4044 44 81.2998 43.1046 81.2998 42C81.2998 40.8954 80.4044 40 79.2998 40ZM70.0039 34.0615C68.299 35.9921 67.2057 38.4741 67.0273 41.207H75.8916C75.973 40.8908 76.0988 40.5926 76.2607 40.3184L70.0039 34.0615ZM82.1748 40.2744C82.3496 40.5606 82.4846 40.8739 82.5703 41.207H90.9727C90.8007 38.572 89.7778 36.1706 88.1768 34.2715L82.1748 40.2744ZM78.3691 30.0156C75.6536 30.1563 73.178 31.2017 71.2344 32.8535L77.4795 39.0986C77.7539 38.9365 78.0527 38.8109 78.3691 38.7295V30.0156ZM80.0928 38.7295C80.3921 38.8065 80.6754 38.9236 80.9375 39.0732L86.9746 33.0361C85.1095 31.3757 82.7245 30.2874 80.0928 30.0498V38.7295Z" fill="#0C63C5"/>
<circle cx="79" cy="42" r="19" stroke="white" stroke-width="2"/>
</svg>
